<svg viewBox="0 0 617 45" xmlns="http://www.w3.org/2000/svg" fill-rule="evenodd" clip-rule="evenodd" stroke-linejoin="round" stroke-miterlimit="1.41421">
  <path d="M207.0222 36.46964c0 .42795-.21379.67742-.67704.7492-.99828.14279-6.2737.14279-7.2002-.03569-.46324-.1067-.71193-.42756-.71193-.96259 0-1.28306.14239-5.48919.14239-6.77225 0-.9975-.10709-4.27712-.10709-5.2758 0-2.17387-.9265-3.24315-2.81598-3.24315-1.14067 0-3.49302 1.31876-3.49302 2.6022v12.83178c0 .53464-.24947.81981-.7496.8916-1.03358.14199-6.09482.10708-7.02132-.0357-.49934-.07178-.74842-.35695-.74842-.78412l.0353-11.19215c0-3.95666-.32086-7.0578-.9265-9.30346-.07178-.32086-.10748-.78411.32008-.8908.99828-.10709 2.31665-.28517 3.99235-.53504 2.53003-.49894 3.92057-.74802 4.24104-.74802.46404 0 .35734 3.20784.81981 3.20784.17848 0 .67742-.53464 2.56651-1.63962 1.8891-1.10497 3.5295-1.64 4.91964-1.64 3.84957 0 7.30689 1.8887 7.30689 5.98774 0 4.56268 0 7.37867.0357 12.22613 0 2.06835.03569 3.60049.03569 4.63408l.0357-.07218zm15.82662-18.53474c0 .1424-.10787.35617-.35695.64134-1.92518-.49895-4.84786.10708-4.84786 2.45942 0 2.06718 4.66977 3.88645 4.66977 8.59113 0 1.56823-.67703 3.77818-1.853 4.73998-2.35273 1.99618-5.77475 3.6711-8.80451 3.6711-.74842 0-3.77818-5.06124-3.77818-5.73866 0-.14239.1067-.21378.24947-.24947 1.10459-.21378 2.24565-.42756 3.35023-.60604 1.39093-.46364 2.10326-1.17597 2.10326-2.20956 0-.71311-.39225-1.49723-1.21127-2.42412-1.46154-1.60392-2.21074-2.45943-2.28135-2.56612-4.09943-6.096 2.88738-11.90566 9.33916-11.90566.60563 0 3.38592 5.09733 3.38592 5.56058l.0353.03608zm18.49904 12.26144c0 .7492-.35617 3.5287-.35617 4.27791 0 .9269-.10708.9618-.92689 1.42584-2.03148 1.1042-4.31321 1.67492-6.80794 1.67492-4.59838 0-6.87934-1.7467-6.87934-5.27541 0-1.74553.24948-7.66266.24948-9.44545 0-1.8883-2.7446-.32008-2.7446-1.67531 0-.42756.10709-1.92479.10709-2.31665 0-.57073-.10709-2.49551-.10709-3.02976 0-.32087.49895-.49895 1.53293-.53504.57033 0 .8908-.17808.9265-.46325.1067-.60603.14239-1.56822.1067-2.85128-.071-2.03187-.1067-2.81599-.1067-2.92307 0-1.8534.17847-2.7446.53464-2.7446.67742 0 3.13646.57034 3.70718.64134.81903.10708 2.03148.28516 3.6715.46364.39224.0357.60563.17808.60563.39186 0 1.06928-.32126 4.70547-.32126 5.77475 0 .78411.21496 1.17597.67782 1.17597.9265 0 4.09904-.14278 5.06202-.14278.35617 0 .53425.10748.53425.35695 0 .71273-.24986 2.56651-.24986 3.27924l.03608 3.31493c0 .32086-.21377.49894-.6778.49894-1.63923-.0357-3.31376-.07139-4.95456-.07139-.24947 0-.35616.35656-.35616 1.0336l.03608 3.38631c0 2.49512.3197 3.77818 2.95798 3.77818 1.49723 0 3.74249-1.21088 3.74249-.0349v.03451zm14.72126-7.41397c0-3.13685-3.88488-5.16833-6.02383-2.45943-.60564.78411-.8912 1.67531-.8912 2.7446 0 .42716.21378.64172.67781.64172 1.17597 0 2.99407-.17848 5.4888-.53503.53464-.07179.7845-.21339.7845-.39186h-.03608zm8.34086 1.46153c0 1.60432-.53385 2.53003-1.56822 2.7446-.1777.03569-1.8181.21377-4.91886.53464-1.88948.21377-4.66938.46325-8.37656.7488.67781 3.24315 6.05952 3.84958 9.40976 1.8891.60603-.39226 1.21245-.7492 1.81809-1.14146.71312.35734 2.85168 4.4556 2.85168 5.2048 0 .1071-.1067.28439-.35577.53504-1.92518 2.06678-4.91964 3.10076-9.01869 3.10076-7.48536 0-12.68938-4.74077-12.68938-12.26261 0-7.19942 4.56269-12.5823 11.90566-12.5823 3.02937 0 5.63158 1.10497 7.77014 3.35062 2.13778 2.20995 3.20746 4.84746 3.20746 7.91253l-.0353-.03452zm16.11101-1.88909c0 1.21167-1.35327.9265-2.35234.8559-1.46075-.10787-3.20745-.10787-3.99157.56955-.46403.39186-.71311 1.24815-.71311 2.49512 0 1.14146.07178 5.06242.07178 6.2023 0 .74842.17808 3.35024.17808 4.09905 0 .39225-.24986.60603-.78411.64172-1.53293.1424-5.5245.1424-7.12842-.0357-.53503-.07099-.7841-.32085-.7841-.7845l.0349-11.40593c0-3.74288-.35616-6.80794-1.0332-9.19637-.07178-.32087-.10747-.74842.32048-.81981.8912-.1067 2.13856-.28517 3.84996-.53464 2.49473-.49895 3.81348-.74842 3.88487-.74842.71312 0 .42795 2.99407.9626 2.99407.21377 0 .42676-.42756 1.96047-1.24737 1.53214-.8202 2.99407-1.24775 4.38343-1.24775.8908 0 1.31876.17808 1.31876.57033 0 .46325-.0357 1.10498-.1424 1.96048-.24986 2.31665-.10708 3.67149-.10708 5.63197h.071zM143.89613 36.29195c0 .53425-.24947.85511-.71311.9265-.96142.1424-6.16622.1424-7.12802-.0357-.46365-.10668-.71273-.49894-.71273-1.17636 0-1.24697.14239-5.3115.14239-6.52277 0-2.7803-.0357-4.74077-.10709-5.91714-.10669-1.8891-.99789-2.8156-2.6732-2.8156-1.49723 0-3.27924 1.49685-3.45732 3.02938-.07139.67742-.10708 2.60181-.10708 5.84653 0 1.24697.14238 5.52449.14238 6.80794 0 .53464-.21377.78412-.67702.78412h-7.2006c-.42716 0-.67702-.32087-.67702-.9626 0-1.28266.14278-5.4531.14278-6.73576 0-.99907-.10709-4.34891-.10709-5.34798 0-5.84496-6.2019-2.85129-6.2019-.74803l.0353 12.90356c0 .81902-.0714.85511-.89081.9261-1.711.142-4.59838.142-6.77264-.0353-.78412-.07178-.78412-.07178-.78412-.8908l.0357-11.40593c0-2.6026-.17848-5.52528-.57034-8.76921-.07139-.39186-.14238-.81942.28517-.9622.78412-.32086 3.5644-.46325 4.09905-.57073.53464-.10669 2.85167-.81941 3.74248-.81941.71312 0 .35656 3.35062.67742 3.31493.9626-.24987 3.20824-3.49302 7.87762-3.49302 2.7799 0 5.63158 1.31876 6.38 4.02766 1.6757-2.28135 4.95454-4.02766 7.77092-4.02766 3.99117 0 7.34258 1.9601 7.34258 6.13053 0 1.42584-.14239 6.1666-.14239 7.59205 0 1.6757.1424 7.34298.1424 9.0183l.1063-.0714z" fill="#0d82df" fill-rule="nonzero"/>
  <path d="M16.25348 25.38418c0-2.38804-1.56823-4.74077-4.17005-4.74077-3.88565 0-5.52527 5.09733-3.10154 8.0561 2.42412 2.95797 7.27159 1.31875 7.27159-3.31533m26.0205.21378c0-4.598-5.02595-6.38039-7.3426-3.31493-1.92478 2.5665-1.17636 8.12748 3.13646 8.12748 2.78068-.0004 4.20613-1.60431 4.20613-4.81255m8.80451.03609c0 6.66516-4.27752 11.90487-11.12155 11.90487-2.6375 0-5.91674-1.8177-5.80966-1.8177-.21417 0-.32086.24908-.32086.71312 0 1.42584.24947 5.88105.24947 7.30689 0 .49894-.24947.74842-.78411.74842-1.21206 0-6.09561.10669-6.95072-.1067-.46365-.10708-.71312-.39225-.71312-.8912l.03609-18.32135c0-3.70718-.28556-6.80794-.8202-9.33876-.0714-.32086-.1067-.7488.24947-.8912 1.28345-.49894 5.81044-1.17597 7.2359-1.17597 1.46153 0 .92688 2.45903 1.39014 2.45903-.17809 0 .53464-.42755 2.03187-1.28306 1.53253-.8559 2.88698-1.28306 4.13473-1.28306 7.02173 0 11.22785 5.02594 11.22785 11.94058l-.0353.03609zm18.17818 4.4909c0 1.03398-.35616 3.27923-.35616 4.27713 0 .85628-.0714.96259-.9269 1.42584-2.03148 1.10497-4.31282 1.6761-6.80794 1.6761-4.59838 0-6.87933-1.7467-6.87933-5.27542 0-1.81809.24947-7.62814.24947-9.44584 0-1.92479-2.7446-.28517-2.7446-1.67492 0-.42795.1067-1.92518.1067-2.31743 0-.56995-.1067-2.49473-.1067-3.02977 0-.32086.49895-.49894 1.53254-.53424.57033 0 .8912-.17848.9269-.46365.10708-.60603.14238-1.56822.10708-2.85168-.0714-2.03147-.10709-3.02976-.10709-2.92267 0-1.8534.17808-2.7446.53464-2.7446.8555 0 2.81599.53464 3.70719.64173.81941.1067 2.03147.28477 3.6711.46325.39224.0357.60602.17847.60602.39225 0 1.21167-.32086 4.5623-.32086 5.77397 0 .7845.21378 1.17636.67742 1.17636.9265 0 4.09904-.14238 5.06163-.14238.35617 0 .53425.10669.53425.35655 0 .71273-.24947 2.56612-.24947 3.27924l.0357 3.31493c0 .32086-.21378.49894-.67703.49894-1.71101-.0357-3.24354-.07139-4.95455-.07139-.24948 0-.35656.35656-.35656 1.03398l.0357 3.38593c0 2.49512.35655 3.77857 2.95837 3.77857 1.6753 0 3.74248-1.24854 3.74248-.03608v.0353zm9.23207-3.95666c0 1.96048.14239 8.37657.14239 10.33705 0 .32086-.21378.53464-.60603.60642-1.10459.1777-6.20192.21378-7.3069 0-.35655-.07178-.57033-.17808-.64133-.32086-.10708-.21378.1067-9.76593.1067-10.62182 0-4.4913-.17809-8.0914-.53464-10.7646-.14278-1.17637.14278-1.10498 2.6379-.81981 3.20784.32086 3.74248-.10708 6.2019-.10708.67743 0 .57035.42794.53465.92689-.35617 3.10037-.53464 6.66516-.53464 10.76381m.60603-17.67923c0 2.7442-1.56823 4.13474-4.66938 4.13474-4.91924 0-6.02422-4.91925-3.24354-7.1649 2.92268-2.35234 7.91292-.74841 7.91292 3.03016m25.52155 27.9092c0 .42794-.21378.6778-.67742.74841-.9979.14278-6.2733.14278-7.2002-.03491-.46325-.10748-.71272-.42756-.71272-.96259 0-1.28267.14239-5.4888.14239-6.77185 0-.99868-.10709-4.2783-.10709-5.2758 0-2.17427-.9265-3.24355-2.81559-3.24355-1.21206 0-3.4934 1.35445-3.4934 2.6022v12.83217c0 .53464-.24948.81942-.74842.89081-1.17637.14239-5.91714.14239-7.02212-.03609-.49894-.0706-.74842-.35616-.74842-.78411l.0357-11.19137c0-3.95666-.32086-7.0578-.9269-9.30346-.071-.35616-.071-.78411.32087-.8908.99828-.10709 2.31704-.28556 3.99235-.53504 2.53082-.49894 3.92057-.74842 4.24182-.74842.46286 0 .35617 3.20824.81981 3.20824-.17808 0 .67703-.53464 2.56612-1.63962 1.88948-1.10497 3.5291-1.63961 4.91925-1.63961 3.84957 0 7.30688 1.88909 7.30688 5.98813 0 4.5623 0 7.37867.0357 12.22613 0 2.06718.0357 3.59932.0357 4.6333l.03569-.07218zM24.0244 25.38417c0 7.2359-4.77646 12.19044-12.04805 12.19044-6.98642 0-11.97666-4.88316-11.97666-11.90488 0-7.27159 4.52699-12.4046 11.97666-12.4046 7.2002 0 12.04805 4.91924 12.04805 12.11904" fill="#84c51e" fill-rule="nonzero"/>
  <path d="M164.03558 37.00428c15.1496 0 27.44633 1.31876 27.44633 2.95916 0 1.63962-12.29713 2.95837-27.44633 2.95837-15.14881 0-27.44555-1.31875-27.44555-2.95837-.0004-1.6404 12.29674-2.95916 27.44555-2.95916" fill-opacity=".14118" fill-rule="nonzero"/>
  <path d="M180.53884 13.4793c.35695-.21378.42795-1.53292.46403-1.92478.1067-.8912 1.21167-1.28306 1.92479-.81981 1.24776.8908 1.88909 2.6022 2.06678 4.06335.17848 1.49683.03609 3.493-1.0332 4.66938-1.14067 1.28345-4.02804 1.6757-5.73866 1.49723-.46325-.0357-.8912-.14278-1.31914-.21378l-.81981-7.34298.89198.17808c.8908.17809 2.7089.35695 3.52871-.10669h.03452z" fill="#996" fill-rule="nonzero"/>
  <path d="M183.31913 12.05346c-.21378-.28517-.46325-.57033-.74842-.74842-.28517-.21417-.8198-.0357-.85629.32087l-.0349.24908c.53502-.17809 1.14066-.0353 1.6396.17847m.9983 5.02594c.21377-1.14067.10668-2.45982-.28518-3.6001-.28516-.35656-.57072-.64133-1.10536-.8555-.67743-.28517-1.0336-.17809-1.35328.10708-.03608.28517-.10826.49895-.17847.71273 1.8534.60603 2.6375 2.38803 2.92267 3.6711v-.03531h-.00039zm-5.4182-2.6379c-.64133 0-1.31875-.0714-1.99578-.21378l.64094 5.91674c.85668.17848 1.85379.17848 2.7446.07179.64172-2.28135 0-4.95455-1.42506-5.81005l.0353.0353zm1.99618-.39186c-.24908.14239-.60682.24947-1.0332.32047 1.28267 1.35484 1.67492 3.81427 1.2105 5.73905 1.06967-.21378 1.96048-.60603 2.42412-1.10498.10708-.10708.17808-.24986.28556-.35655 0-2.03187-.81981-4.20613-2.78029-4.63369-.03609.0357-.03609.0357-.07217.0357h-.03452z" fill="#c0c0a0" fill-rule="nonzero"/>
  <path d="M180.53884 17.89882c-.8555.21417-1.782.24986-2.45982.17847-.28478-.0357-.53464-.07139-.78411-.14278l-.42756-3.6711c.67703.1424 1.35484.21378 1.99618.21378.92689.57034 1.5337 1.92479 1.6404 3.42163h.0349zm2.6026-5.16833c.03452.21417.0706.42795.1063.64133.07139.42795.07139.9269.0357 1.42624-.46404-.57034-1.06929-1.06929-1.8887-1.35445.0706-.21378.14238-.42795.17808-.71312.28399-.24947.67624-.39225 1.35366-.1067.07218.03531.14318.071.21496.1067m-.53504-1.39014c.10709.17847.1777.35655.24948.53464-.39226-.1067-.78412-.14278-1.21206-.0353l.0357-.24948c.0349-.35695.56954-.53503.8555-.32086l.07178.0353v.0357h-.0004zm-1.711 2.70929c-.24948.14239-.60682.24908-1.03359.32047.78411.8198 1.21089 2.03187 1.35406 3.31532.49855-.17887.9622-.42795 1.24775-.78411.28556-.28556-.46364-2.6736-1.49683-2.88738-.03609.0357-.03609.0357-.0714.0357" fill="#fbfac4" fill-rule="nonzero"/>
  <path d="M147.10476 13.4793c-.35734-.21378-.42795-1.53292-.46443-1.92478-.10669-.8912-1.21166-1.28306-1.92439-.81981-1.24815.8908-1.88909 2.6022-2.06717 4.06335-.17808 1.49683-.0357 3.493 1.03358 4.66938 1.14068 1.28345 4.02766 1.6757 5.73867 1.49723.46325-.0357.8912-.14278 1.31914-.21378l.81942-7.34298-.8916.17808c-.8908.17809-2.7089.35695-3.5287-.10669h-.03452z" fill="#996" fill-rule="nonzero"/>
  <path d="M144.32447 12.05346c.21378-.28517.46325-.57033.74803-.74842.28556-.21417.8202-.0357.85668.32087l.03452.24908c-.53464-.17809-1.14067-.0353-1.63923.17847m-.99867 5.02594c-.21339-1.14067-.1063-2.45982.28556-3.6001.28516-.35656.57033-.64133 1.10497-.8555.67742-.28517 1.03398-.17809 1.35367.10708.03609.28517.10826.49895.17847.71273-1.8534.60603-2.6375 2.38803-2.92307 3.6711v-.03531h.0004zm5.41858-2.6379c.64133 0 1.31875-.0714 1.99578-.21378l-.64133 5.91674c-.85629.17848-1.85379.17848-2.7446.07179-.64172-2.28135 0-4.95455 1.42545-5.81005l-.0353.0353zm-1.99618-.39186c.24908.14239.60682.24947 1.0332.32047-1.28306 1.35484-1.67492 3.81427-1.21089 5.73905-1.06928-.21378-1.96008-.60603-2.42412-1.10498-.10709-.10708-.1777-.24986-.28517-.35655 0-2.03187.81981-4.20613 2.7803-4.63369.03569.0357.03569.0357.07217.0357h.03451z" fill="#c0c0a0" fill-rule="nonzero"/>
  <path d="M147.10476 17.89882c.8555.21417 1.782.24986 2.45943.17847.28517-.0357.53464-.07139.78411-.14278l.42756-3.6711c-.67703.1424-1.35445.21378-1.99579.21378-.92689.57034-1.53292 1.92479-1.6404 3.42163h-.0349zm-2.6026-5.16833c-.0349.21417-.0706.42795-.10669.64133-.071.42795-.071.9269-.03491 1.42624.46325-.57034 1.06889-1.06929 1.8883-1.35445-.0706-.21378-.14238-.42795-.17847-.71312-.28399-.24947-.67585-.39225-1.35327-.1067-.07218.03531-.14317.071-.21496.1067m.53504-1.39014c-.10709.17847-.1777.35655-.24948.53464.39186-.1067.78412-.14278 1.21207-.0353l-.0361-.24948c-.03451-.35695-.56915-.53503-.8551-.32086l-.07179.0353v.0357h.0004zm1.711 2.70929c.24948.14239.60682.24908 1.0336.32047-.78412.8198-1.21129 2.03187-1.35407 3.31532-.49855-.17887-.96259-.42795-1.24815-.78411-.28477-.28556.46404-2.6736 1.49723-2.88738.0357.0357.0357.0357.0714.0357" fill="#fbfac4" fill-rule="nonzero"/>
  <path d="M151.06063 12.05346c-1.24736-.10708-2.45981.14239-3.67148.32086l1.06928-1.03397c1.03437-.9979 2.42412-1.8891 3.74405-2.53082 1.9597-.9979 4.20574-1.74631 6.4506-1.96009-1.569-.67742-3.35101-.99828-5.02554-1.39054 6.45217-1.35405 14.72086-1.8534 20.63839 3.17255 3.38671 2.88737 5.23971 8.23417 5.23971 13.08163 0 18.28645-31.15312 18.28645-31.15312 0 0-2.45942.60564-4.81176 1.7467-6.95072-.42755.10709-.8198.24947-1.24854.42795l-1.88791.78411 1.35327-1.53292c.8202-.9265 1.7471-1.71062 2.81638-2.31665l-.07179-.07139z" fill="#8ed41e" fill-rule="nonzero"/>
  <path d="M165.03386 6.4215c3.03016.35616 5.98814 1.35444 8.44678 3.45731 2.99407 2.53082 4.59838 7.2359 4.59838 11.47772 0 7.76974-6.41608 11.79818-13.04555 12.01196v-26.947h.0004z" fill="#70a91b" fill-rule="nonzero"/>
  <path d="M153.55576 10.37815c2.35273-1.56862 6.2027-2.06757 10.83677-1.8177-.81981-.9622-1.56823-1.56862-2.6732-2.10326 2.10286-.0714 3.77778.39225 7.94822 1.8181-3.59932-2.10327-8.01883-3.06547-12.15435-2.60222 1.49683.42756 2.92267 1.10498 4.24143 1.99618-4.24143-.46325-9.12538 1.56823-11.08586 3.24354 1.28385-.14239 2.42373.1067 3.63658.64173-1.711.60563-2.81638 1.14067-3.88605 2.17425 1.8534-.92689 3.31493-1.711 5.66766-2.20995-.92689-.32086-1.42584-.8912-2.5312-1.14067" fill="#a1e141" fill-rule="nonzero"/>
  <path d="M163.8924 6.06494c4.27831 0 7.73524 3.35062 7.73524 7.52105 0 4.13474-3.45693 7.52106-7.73523 7.52106-4.27674 0-7.73366-3.35062-7.73366-7.52106-.00079-4.13473 3.45692-7.52105 7.73366-7.52105" fill="#70a91b" fill-rule="nonzero"/>
  <path d="M151.63136 20.6081c.24947-.46364 23.70346-.64172 24.1671 0 .81903 1.06929.35656 2.10288 0 2.99407h-24.1671c-.21378-.96258-.57033-1.99617 0-2.99406" fill="#70a91b" fill-rule="nonzero"/>
  <path d="M151.95222 21.28514c.24948-.60603 23.09704-.8555 23.56068 0 .78411 1.46114.32047 2.88698 0 4.09904h-23.56068c-.21417-1.31915-.53464-2.7089 0-4.09904" fill="#4b7113" fill-rule="nonzero"/>
  <path d="M170.9506 5.74446c-.32046-6.09521-8.51934-6.73694-10.6575-1.96048 3.77817-2.06756 7.62735-1.31875 10.6575 1.96048" fill="#70a91b" fill-rule="nonzero"/>
  <path d="M166.38792.68283c-2.38725-.35656-4.98946.67742-6.05874 3.06507 1.42545-.78412 2.88737-1.14028 4.27713-1.14028.28556-.53464.96259-1.56823 1.81809-1.92479h-.03648z" fill="#85c51f" fill-rule="nonzero"/>
  <path d="M163.8924 5.28082c3.84958 0 6.95112 3.10115 6.95112 6.95072 0 3.84958-3.10154 6.95073-6.95111 6.95073-3.84879 0-6.94955-3.10115-6.94955-6.95073 0-3.84957 3.10037-6.95072 6.94955-6.95072" fill="#d3e8ef" fill-rule="nonzero"/>
  <path d="M159.50898 7.06322c2.31665-1.92479 5.56058-1.92479 7.1998.07139 1.63962 1.96048 1.06968 5.13263-1.24736 7.09311-2.31743 1.92479-5.56058 1.92479-7.20098-.07139-1.63884-1.96048-1.0681-5.13263 1.24854-7.09311" fill="#fff" fill-rule="nonzero"/>
  <path d="M164.07088 9.8792c2.7089 0 4.88355 2.03187 4.88355 4.5623 0 2.53081-2.17543 4.56268-4.88355 4.56268-2.70811 0-4.88316-2.03187-4.88316-4.56268 0-2.53043 2.17465-4.5623 4.88316-4.5623" fill="#0d82df" fill-rule="nonzero"/>
  <path d="M164.07088 9.8792c1.31876 0 2.53082.49895 3.38632 1.28306-.32047 1.10498-.99789 2.20996-1.99617 3.06546-1.92479 1.60392-4.49052 1.85379-6.23761.78411-.0357-.17808-.0357-.35616-.0357-.57033 0-2.53043 2.17465-4.5623 4.88316-4.5623" fill="#0399ed" fill-rule="nonzero"/>
  <path d="M164.07088 11.51882c1.711 0 3.13685 1.31876 3.13685 2.92268 0 1.60431-1.39015 2.92268-3.13685 2.92268-1.71061 0-3.13645-1.31837-3.13645-2.92268 0-1.60392 1.38975-2.92268 3.13645-2.92268" fill="#232323" fill-rule="nonzero"/>
  <path d="M164.07088 11.51882c1.10498 0 2.06757.53464 2.6379 1.31876-.32125.49894-.7488.9622-1.24775 1.35445-1.28385 1.06967-2.85247 1.53292-4.24183 1.42583-.17808-.35616-.28477-.7841-.28477-1.21206 0-1.60392 1.38975-2.92267 3.13645-2.92267v.0357z" fill="#323232" fill-rule="nonzero"/>
  <path d="M161.32629 10.12868c1.28306 0 2.31664.96259 2.31664 2.17425 0 1.21207-1.03358 2.17466-2.31664 2.17466s-2.31665-.9626-2.31665-2.17466c0-1.21166 1.03359-2.17425 2.31665-2.17425" fill="#fff" fill-rule="nonzero"/>
  <path d="M147.6747 22.99614c10.7646-1.60392 21.56568-1.46153 32.33028 0 .78412 5.63158.35617 10.97917 0 16.36048-10.7646.42795-21.56568.49973-32.33027 0-.64173-5.4531-.71234-10.90698 0-16.36048" fill="#9caeb3" fill-rule="nonzero"/>
  <path d="M150.77586 38.25204c8.73312.32008 17.43054.28556 26.16288 0-3.13645-1.78279-6.2733-3.49262-9.802-4.45521-1.14147.53464-2.35235.96259-3.56441 1.31875-.17848.0353-.17848.0353-.35656 0-.99868-.32086-1.99618-.71311-2.95916-1.14027-3.42201.9975-6.52277 2.45903-9.51684 4.31282l.03609-.03609zm-2.06757-13.4025c-.46325 4.31321-.39225 8.66173.07178 12.97455 3.13685-1.96009 6.48708-3.5287 10.0154-4.6333-4.06335-2.13855-6.91503-5.2044-10.08718-8.34125m29.37073-.85511c-9.51645-1.14146-19.06938-1.24815-28.58622 0 3.92057 4.38342 8.23457 7.9843 13.97323 9.87261 6.09443-1.74552 10.30017-5.5598 14.61299-9.87261m.8202 13.82966c.28556-4.31282.57034-8.62564.10709-12.93846-3.20746 3.17254-6.62986 6.2019-10.62221 8.30438 3.70718 1.10498 7.16528 2.74538 10.5516 4.63369h-.03648v.0004z" fill="#d3e8ef" fill-rule="nonzero"/>
  <path d="M150.77586 38.25204c4.20534.14278 8.41108.21378 12.65369.21378v-3.35024c-.0357 0-.071 0-.17809-.03608-.99789-.31969-1.99539-.71233-2.95837-1.14028-3.42201.99789-6.52277 2.45903-9.51723 4.31282m-2.06757-13.4025c-.46325 4.31321-.39225 8.66173.07178 12.97455 3.13685-1.96009 6.48708-3.5287 10.0154-4.6333-4.06335-2.13855-6.91503-5.2044-10.08718-8.34125m14.72126-1.7467c-4.66938 0-9.30307.28516-13.93675.89198 3.88566 4.38382 8.23457 7.94861 13.93675 9.87262v-10.7646z" fill="#fff" fill-rule="nonzero"/>
  <path d="M157.37002 25.66974c-.0353.14239-.10669.28556-.1773.42795-.07217.21378-.21456.42677-.39225.56955-.42795.32086-.9622.21456-1.42662.0357-1.03359-.42795-1.74592-1.46154-2.17426-2.45943-.49855-1.14146-.53464-1.96048-.24947-3.20824 7.2002-.39186 14.57886-.46325 21.56489-.0357v.0357h.10748c.10708 1.21206 0 1.711-.28478 2.71008-.32125 1.14028-.99907 2.52964-2.13895 3.06428-.42795.21456-.9269.32125-1.31915.0357-.1777-.1424-.31969-.35617-.42756-.57034-.24947-.39186-.32008-.96142-.39186-1.38976-.14239.28517-.32047.46325-.60603.53425-.46325.10709-.99789.1777-1.46153.21378-.46325.03609-.96142.07218-1.46154.07218-.74842 0-1.56862-.07218-2.28056-.28517-.10669.42795-.28516.81902-.71272.9614-.46325.14279-1.03398.21457-1.53293.25066-.53464.03491-1.06928.071-1.56822.071-.81981 0-1.7467-.071-2.49512-.39186-.28556-.10709-.46443-.32126-.57034-.60603v-.0357h-.00118z" fill="#996" fill-rule="nonzero"/>
  <path d="M169.45338 20.78619c.28556 1.60392.21377 3.67149-.24948 3.77818-.71311.17848-3.4577.46404-4.81176-.0349-.35735-.67704-.35735-2.38805-.32126-3.77819 1.85379-.0004 3.70718-.0004 5.3825.03491m-11.51341.32086c-.24908.74881-.49856 1.60393-.74803 2.6383-.14278.64172-.24986 1.28306-.35734 1.74592-.14239.64133-.46325.7488-1.06928.49894-1.56862-.67664-2.38726-3.31414-2.31704-4.91885 1.06967-.0714 2.67399-.14239 4.4913-.21378 1.74709-.0357 3.70757-.07139 5.66805-.07139.1773 1.96048.1773 4.31321-.24947 4.81177-.7496.25065-3.6715.60681-5.09811-.03491-.64173-.28478-.39226-2.6732-.35656-4.4199l.03648-.0361zm11.79897-.32086c.21299.8555.46286 1.7467.71194 2.88737.14238.71273.21456 1.39093.32086 1.8534.14278.71272.42795.8198.9979.53503 1.39092-.7135 2.17503-3.3514 2.13855-5.09732-1.0328-.0714-2.49433-.14278-4.16925-.17848" fill="#c0c0a0" fill-rule="nonzero"/>
  <path d="M164.07088 21.74878c1.67531 0 3.35141 0 4.88355.0353.24947.8916.24947 2.49552-.8202 2.88738-1.14028.10747-2.78029.14238-3.74249-.21378-.24908-.49934-.32086-1.60432-.32086-2.7089m-6.1666.1067c1.53292-.0357 3.27962-.0714 5.02632-.0714.1773 1.28345.49856 3.84997-1.10537 3.99235-1.17636.10709-2.6375.10709-3.5648-.28516-.53346-.24948-.46285-2.03148-.39185-3.6001l.0357-.0357zm-4.38383.21416c.74842-.07139 1.74592-.10748 2.9219-.14278.14277 0 .42794 3.52871.42794 3.52871-.14278.64173-.46325.74881-1.06928.49934-1.24776-.53464-2.03187-2.31782-2.24604-3.84997l-.03452-.0353zm17.25168 3.45732c.14239.71272.42795.8198.9979.53503 1.14145-.57072 1.85378-2.42451 2.06795-4.02804-.67703-.07179-1.49684-.10709-2.46021-.14278-.56994.42795-.67742 3.38632-.60564 3.63579" fill="#fbfac4" fill-rule="nonzero"/>
  <path d="M161.00542 21.81978c.07218 1.39093 0 2.78029-.1773 2.88698-.35616.21495-1.6753.49934-2.31664-.0353-.25065-.1777-.21456-1.53293-.17848-2.81599.85512-.0357 1.7467-.0357 2.7089-.07139l-.03648.0357zm5.98892-.0357c.0353 1.03398-.03608 1.99618-.17847 2.06757-.32047.17769-1.56862.39225-2.20996-.0357-.21377-.14239-.21377-1.10537-.17847-2.06717h2.5673v.0353h-.0004zm-11.26393.17808c-.0357.39226-.0357.8563-.0357 1.31915v1.42545c0 .53503-.14239.64172-.42795.39225-.56955-.42755-1.06928-1.782-1.28306-3.02937.49895-.03609 1.10537-.07139 1.7467-.10748m17.67963.0361c-.46442-.0361-.99867-.0714-1.60431-.0714 0 .39186.03609.81942.03609 1.28345v1.53254c0 .57033.10669.67742.39186.42755.49894-.46364.96258-1.8177 1.17636-3.17215" fill="#fff" fill-rule="nonzero"/>
  <path d="M149.81388 38.53772c-.39216 1.78172-2.17514 2.9576-3.95623 2.88657-2.45983-.10746-6.27403-2.81618-6.20238-5.48907.03582-1.49702 1.14067-2.852 2.28135-3.70672 1.10485-.85724 2.95821-1.74715 4.38485-1.35499 1.42537.39217 2.42275 2.35237 2.88657 3.63508.42736 1.10548.85535 2.85326.5694 4.02913h.03644l.00063-.00062v.00062h-.00063zm28.08829 0c-.28596-1.17587.14203-2.92365.5694-4.02913.4638-1.2827 1.46245-3.24291 2.8872-3.63508 1.42537-.39216 3.27999.49775 4.38484 1.35499 1.14005.85472 2.24616 2.2097 2.28072 3.70672.07165 2.6729-3.74255 5.3816-6.20113 5.48907-1.78297.07102-3.56469-1.10485-3.95686-2.88657h.03583zm-.03583 0v-.00062.00062z" fill="#85c51f"/>
  <path d="M149.20804 38.3586c.03519-.21367.07164-.42798.07164-.67748-.46318-1.9602-1.56866-4.20574-2.81618-4.56145-1.925-.57128-5.8096 1.9954-5.59654 4.63372 1.06966 1.63906 3.35164 2.99404 4.9907 3.06443 1.49701.07164 3.02986-.927 3.351-2.42402v-.0352h-.00062zm29.22896 0c-.03583-.21367-.0729-.42798-.0729-.67748.46443-1.9602 1.56866-4.20574 2.8168-4.56145 1.92438-.57128 5.8096 1.9954 5.59592 4.63372-1.06966 1.63906-3.35101 2.99404-4.99007 3.06443-1.49702.07164-3.02986-.927-3.35101-2.42402v-.0352h.00126z" fill="#70a91b"/>
  <path d="M148.53054 38.85762c.2495-.60585-.10684-1.67488-.81952-1.56867-.74851.1433-2.53149 1.426-2.45921 2.13932.03456.57065 1.0332 1.06966 1.81754.7837.57002-.21305 1.24751-.85535 1.4612-1.35435zm30.61852 0c-.2495-.60585.10684-1.67488.82015-1.56867.74851.1433 2.53023 1.426 2.45921 2.13932-.03582.57065-1.0332 1.06966-1.81817.7837-.57002-.21305-1.24689-.85535-1.4612-1.35435zm-31.72337-2.49504c.49838-.99801-.3199-2.74453-1.56804-2.6025-1.31916.17849-4.17053 2.13932-4.17053 3.67216 0 .96282 1.31853 1.64031 2.7087 1.24815 1.03384-.28533 2.6377-1.49765 3.02987-2.3178zm32.82885 0c-.50027-.99801.31989-2.74453 1.56866-2.6025 1.31854.17849 4.16991 2.13932 4.16991 3.67216 0 .96282-1.31916 1.64031-2.70934 1.24815-1.03384-.28533-2.63707-1.49765-3.02923-2.3178z" fill="#5d8d17"/>
  <path d="M141.2233 34.6877c.21494.46382-.2495 1.10486-.7837 1.06967-.57002-.428-1.10423-1.426-.89117-1.67551.21368-.2847 1.1765 0 1.67487.60585zm45.1978 0c-.21494.46382.2495 1.10486.7837 1.06967.57003-.428 1.10423-1.426.89118-1.67551-.21368-.2847-1.17587 0-1.67488.60585zm-43.37963-1.78234c.1414.71206-.81953 1.31916-1.28397.99801-.60521-.60584-.8189-1.67487-.53483-1.92438.28596-.2495 1.3198.14267 1.8188.92637zm41.56146 0c-.14203.71206.81953 1.31916 1.28397.99801.60522-.60584.8189-1.67487.53483-1.92438-.28596-.2495-1.3198.14267-1.8188.92637zM145.4655 31.7295c.0352.64167-1.21232 1.21107-1.71133.74851-.42799-.82078-.3199-1.81817.03582-2.03185.39217-.2143 1.35499.17786 1.6755 1.28334zm36.71406 0c-.03646.64167 1.21169 1.21107 1.7107.74851.42798-.82078.32052-1.81817-.0352-2.03185-.3928-.2143-1.35561.17786-1.6755 1.28334zM148.82153 25.07775c-.1653-.07542-.25454-.24448-.28973-.54803-.0729-.57065.10621-1.4612.7837-1.60386.6775-.1433 1.63969.5342 1.71133 1.1036l.03457.03582c.06033.4789-.53232.7573-1.14508.91882.49901.20991.95465.66807 1.00304 1.07783.06474.55054-.63727.86604-1.3003 1.0263.5122.23505.95464.54677.72965.96847v.00126-.00126h.03582c-.28532.53483-1.49764.96282-2.13868.74851-.6775-.21368-.53546-1.0332-.2495-1.5674.11815-.25454.25264-.38777.4305-.4349-.01634-.06034-.02891-.12947-.03834-.20678-.05656-.477.0421-1.17335.43302-1.51838zm28.92855-.08799c-.6203-.16089-1.22804-.43993-1.16707-.92448l.03519-.03582c.07102-.5694 1.0332-1.2469 1.7107-1.1036.6775.14266.8566 1.0332.7837 1.60386-.0333.2891-.11626.45627-.2671.53671.40223.34126.50278 1.04767.44622 1.5297-.00943.0817-.02326.15398-.04085.21683.16089.05467.28595.18665.3972.42484.28532.5342.42798 1.35373-.24951 1.56741-.64104.21431-1.85336-.21368-2.1387-.7485h.0352c-.22625-.42548.225-.73846.74286-.97414-.65676-.16215-1.34116-.47638-1.27706-1.02064.04777-.40599.49587-.85975.98922-1.07217zm-.45439 3.06694h-.00063l.00063.00126v-.00126zm-31.8302-5.30996c.1062.46444.99738.35635 1.67487.21494.6775-.17848.927-.32115.78434-.78433-.10684-.46381-.53483-1.10548-1.21107-.927-.6775.17786-1.35435 1.03384-1.24814 1.53285v-.03646zm36.74925 0c-.10747.46444-.99864.35635-1.67613.21494-.67624-.17848-.92637-.32115-.78434-.78433.1081-.46381.53483-1.10548 1.2117-.927.67812.17786 1.35498 1.03384 1.24877 1.53285v-.03646z" fill="#2c440c"/>
  <path d="M144.9005 28.53057l.17282.48958-.46381-.35634c-.21431-.1785-.39154-.428-.5342-.71332.03456.28533.07102.46444.14266.71332-.67686-1.10549-1.28397-2.31718-.8918-3.92041.35697-1.46183 1.8188-2.13932 2.852-2.42402.64167-.17848 1.35373-.28532 1.9954-.2143.39217.03582 1.06966.14266 1.35499.499.2847.3576.42736 1.10548.49837 1.60386.10684.78433.07228 1.60449-.03456 2.3882-.10747.71268-.32115 1.39017-.6775 1.96083-.28532.42798-.60647.7485-1.0332.927-.50026.21367-.99927.24887-1.5341.14265-.68-.13637-1.2959-.53231-1.84708-1.09605l-.04085-.11627-.03645.03582a9.52782 9.52782 0 0 0 .0773.08045zm37.84341 0c-.55117.56374-1.16707.95968-1.84707 1.09605-.53483.10622-1.03384.07102-1.53348-.14266-.42736-.17849-.7485-.499-1.0332-.927-.35698-.57065-.57003-1.24814-.6775-1.96083-.10746-.7837-.14203-1.60386-.03519-2.38819.07102-.49838.21368-1.24626.499-1.60386.28533-.35634.96282-.46318 1.35436-.499.64167-.07102 1.35373.03582 1.9954.2143 1.0332.2847 2.49503.9622 2.852 2.42402.39217 1.60323-.2143 2.81492-.89117 3.9204.07102-.24887.10747-.42798.14204-.71331-.14204.28533-.31927.53483-.53483.71332l-.46319.35634.17283-.48958c.0264-.0264.05217-.05342.07793-.08045l-.03645-.03582-.04148.11627z" fill="#85c51f"/>
  <path d="M149.17221 23.10309c.428.49963.6423 2.60313.14267 4.13534-.14267.03582-.32115.07165-.49838.07165-.78496.07164-1.5341-.2847-2.03248-.71269.03582.21368.10684.35634.17849.46318-.428-.17722-.78434-.71205-1.03384-1.31853.03457.499.10684.71332.17786.99864-.53483-.17848-.9622-.78433-1.28334-1.42537-.28533-.57065-.2495-1.39081.2495-1.74715 1.31854-.9622 3.5647-1.03384 4.06307-.42736l.03645-.03771zm29.29935 0c-.42736.49963-.64167 2.60313-.14203 4.13534.14203.03582.32052.07165.49838.07165.78433.07164 1.53347-.2847 2.03247-.71269-.03645.21368-.10747.35634-.17848.46318.42799-.17722.78433-.71205 1.0332-1.31853-.03456.499-.10684.71332-.17722.99864.53483-.17848.96156-.78433 1.28334-1.42537.2847-.57065.2495-1.39081-.2495-1.74715-1.31854-.9622-3.5647-1.03384-4.06308-.42736l-.03708-.03771z" fill="#a1e141"/>
  <g>
    <path d="M330.34756 14.31521v13.74811c0 3.22908 1.87412 5.45038 5.45038 5.45038s5.41583-2.2213 5.41583-5.45038v-13.7481h5.03409v13.88713c0 5.72845-3.40187 9.68645-10.44992 9.68645-7.04804 0-10.44991-3.958-10.44991-9.68645V14.31521h4.99953zM522.71902 37.8888c6.21466 0 9.26935-3.19453 9.26935-7.42979 0-8.6449-13.29646-6.1801-13.29646-9.82547 0-1.38871 1.17977-2.29122 3.26284-2.29122 2.36113 0 4.8605.79884 6.73542 2.53473l2.74287-3.68074c-2.29121-2.11763-5.3467-3.22828-9.02664-3.22828-5.45038 0-8.78394 3.19373-8.78394 7.04725 0 8.71482 13.33182 5.90203 13.33182 9.92995 0 1.35335-1.28424 2.56847-4.02711 2.56847-3.19372 0-5.72845-1.45782-7.35986-3.15916l-2.70832 3.85352c2.18755 2.18755 5.38127 3.68074 9.86003 3.68074zm27.91332-.4171h-4.93042V14.3152h4.93042V37.4717zm-148.73145 0h-4.93041V14.3152h4.93041V37.4717zm65.54683-18.81676h-11.4569v4.8605h11.2142v4.33974h-11.2142v5.27679h11.4569v4.33973h-16.3865V14.3152h16.3865v4.33973zm115.22871 0h-6.73542V37.4717h-4.96417V18.65494h-6.76998v-4.33973h18.46957v4.33973zM486.64701 37.4717h-4.92961V14.3152h10.83165c4.82594 0 7.81151 3.15917 7.81151 7.46434 0 4.06167-2.60383 6.28377-5.1032 6.87365l5.24224 8.8185h-5.6939l-4.54787-8.22781h-3.61082v8.2278zm-120.47095 0h-4.92961V14.3152h5.06865l10.72797 14.54694V14.31521h4.92962V37.4717h-4.75603l-11.0406-15.10227V37.4717zm241.46267 0h-4.92961v-9.4775l-8.88842-13.67899h5.62478l5.72844 9.26935 5.72845-9.26935h5.58941l-8.85305 13.679v9.47749zm-178.06803 0h-6.1793l-8.92296-23.15649h5.58941l6.4228 17.77522 6.4228-17.77522h5.59022L429.5707 37.4717zm62.284-18.81676H486.647v6.24922h5.20768c1.94404 0 3.43723-1.18057 3.43723-3.15917 0-1.90948-1.49239-3.09005-3.43723-3.09005z" fill="#3e4558" fill-rule="nonzero"/>
  </g>
  <g>
    <path fill="#3e4558" d="M301.40098.0002h2.99964v44.042h-2.99964z"/>
  </g>
</svg>
